<svg width="511" height="541" viewBox="0 0 511 541" fill="none" xmlns="http://www.w3.org/2000/svg">
<circle cx="264" cy="294" r="247" fill="#9FA0FF"/>
<g clip-path="url(#clip0_44_24)">
<path d="M370.274 72.4568V384.585H170.178V64.906C202.185 51.9144 236.547 45.8721 271.024 47.1731C305.501 48.4742 339.319 57.0892 370.274 72.4568Z" fill="white"/>
<path d="M384.91 80.418C384.404 80.0777 383.892 79.755 383.386 79.4265C368.757 69.9899 353.078 62.3237 336.671 56.5864L332.867 109.518H308.751V48.8596C307.233 48.5427 305.703 48.2435 304.173 47.9619V109.518H275.514C259.737 109.518 244.606 103.197 233.45 91.9441C222.294 80.6917 216.026 65.4301 216.026 49.5167C214.491 49.8511 212.967 50.209 211.443 50.5903V109.518H188.1L184.476 59.0446C167.616 65.5665 151.61 74.1431 136.814 84.5835C136.558 84.7595 136.302 84.9414 136.052 85.1174C134.767 86.0268 133.499 86.9538 132.236 87.8925V382.526H201.031L199.815 365.541L193.126 179.587H327.836L321.146 365.541L319.931 382.526H387.963V82.4597C386.951 81.7674 385.933 81.0868 384.91 80.418ZM211.443 164.187H192.021L188.432 114.141H211.443V164.187ZM304.173 164.187H271.553V163.195C271.553 162.718 271.46 162.246 271.279 161.806C271.098 161.366 270.833 160.966 270.498 160.629C270.164 160.292 269.767 160.025 269.33 159.843C268.893 159.662 268.425 159.568 267.952 159.569H253.771C253.299 159.569 252.832 159.663 252.395 159.845C251.959 160.027 251.563 160.294 251.229 160.631C250.895 160.967 250.63 161.367 250.45 161.807C250.269 162.247 250.176 162.719 250.177 163.195V164.187H216.026V114.141H304.173V164.187ZM308.751 164.187V114.141H332.536L328.947 164.187H308.751Z" fill="#3F3D56"/>
<path d="M492.769 376.517C492.763 376.535 492.757 376.546 492.752 376.564C492.711 376.687 492.67 376.799 492.624 376.922V376.928C490.64 382.548 488.461 388.075 486.086 393.508L37.4755 393.015C35.0673 387.471 32.857 381.825 30.8444 376.077C30.8379 376.064 30.8339 376.05 30.8328 376.036L492.769 376.517Z" fill="#3F3D56"/>
<path d="M325.119 378.447H246.593V389.008H325.119V378.447Z" fill="white"/>
<path d="M142.647 481.865C142.926 479.384 143.312 476.918 143.805 474.467C146.497 461.18 152.274 448.726 160.662 438.127C165.461 438.397 169.666 437.658 170.067 428.282C170.143 426.616 171.37 425.167 171.638 423.524C171.184 423.589 170.713 423.624 170.259 423.653C170.114 423.659 169.963 423.671 169.823 423.677H169.771C169.267 423.701 168.767 423.577 168.332 423.32C167.896 423.064 167.544 422.686 167.317 422.232C167.09 421.777 166.998 421.267 167.053 420.761C167.107 420.255 167.306 419.777 167.624 419.382C167.822 419.142 168.02 418.895 168.218 418.649C168.514 418.268 168.823 417.898 169.125 417.522C169.16 417.481 169.189 417.446 169.224 417.405C169.567 416.977 169.91 416.549 170.259 416.12C169.629 415.133 168.781 414.306 167.781 413.703C164.32 411.655 159.545 413.075 157.044 416.232C154.537 419.388 154.06 423.824 154.932 427.766C155.677 431.146 157.3 434.243 159.12 437.189C158.934 437.429 158.736 437.664 158.55 437.91C155.12 442.361 152.129 447.14 149.622 452.179C150.331 446.587 141.658 426.405 138.302 422.128C134.271 416.994 126.011 419.236 125.302 425.748C125.296 425.807 125.284 425.871 125.278 425.936C125.779 426.217 126.267 426.516 126.744 426.839C127.343 427.243 127.808 427.82 128.076 428.495C128.345 429.169 128.405 429.91 128.249 430.619C128.093 431.329 127.728 431.975 127.202 432.472C126.676 432.968 126.014 433.294 125.302 433.404L125.226 433.416C118.56 443.02 139.937 468.019 145.294 462.411C143.947 466.228 142.872 470.137 142.077 474.109C141.364 477.613 140.867 481.157 140.588 484.723C140.249 489.213 140.27 493.724 140.652 498.211C140.642 498.158 140.634 498.106 140.629 498.052C139.436 488.278 119.037 473.746 113.081 474.954C109.649 475.652 106.269 475.494 106.793 478.985C106.799 479.043 106.81 479.096 106.816 479.155C107.741 479.531 108.641 479.968 109.509 480.463C110.01 480.745 110.498 481.05 110.975 481.367C111.536 481.745 111.98 482.276 112.255 482.897C112.53 483.519 112.625 484.207 112.53 484.88C112.434 485.554 112.152 486.187 111.715 486.706C111.279 487.226 110.706 487.61 110.062 487.815C112.592 489.827 115.161 491.794 117.769 493.717C118.182 494.022 118.595 494.327 119.014 494.62C122.417 497.096 125.887 499.482 129.426 501.778C133.742 504.582 138.151 507.254 142.653 509.792C143.27 510.138 143.886 510.485 144.509 510.825C142.944 504.331 142.151 497.672 142.147 490.989C142.145 487.941 142.312 484.895 142.647 481.865ZM145.829 460.903L145.841 460.885C145.84 460.896 145.836 460.907 145.829 460.915V460.903ZM141.193 503.092L141.013 502.687C141.019 502.388 141.019 502.095 141.013 501.79C141.013 501.708 140.995 501.625 140.995 501.543C141.065 502.065 141.123 502.588 141.199 503.11L141.193 503.092ZM167.909 503.89C167.973 503.62 168.026 503.432 168.09 503.163C168.066 503.104 168.043 503.045 168.02 502.992C166.083 498.34 155.857 507.721 151.436 514.509C156.613 517.149 161.893 519.61 167.275 521.89C167.636 521.432 168.008 520.981 168.375 520.523C168.41 520.482 168.439 520.447 168.468 520.406C169.259 519.42 170.056 518.446 170.841 517.46C170.847 517.267 170.847 517.073 170.847 516.885C170.839 514.06 170.495 511.245 169.823 508.502C169.283 508.527 168.748 508.384 168.291 508.092C167.834 507.8 167.477 507.374 167.268 506.871C167.059 506.367 167.008 505.812 167.123 505.278C167.238 504.745 167.512 504.261 167.909 503.89V503.89Z" fill="white"/>
<path d="M293.736 381.784C295.132 382.756 296.723 383.407 298.396 383.691C300.069 383.975 301.784 383.886 303.419 383.43C305.054 382.974 306.57 382.162 307.861 381.05C309.151 379.939 310.184 378.556 310.887 376.999L351.95 380.873L341.869 361.797L304.421 361.042C301.748 360.025 298.799 360.031 296.13 361.06C293.462 362.089 291.261 364.07 289.944 366.626C288.627 369.183 288.286 372.138 288.984 374.932C289.683 377.725 291.374 380.164 293.736 381.784V381.784Z" fill="#FFB6B6"/>
<path d="M335.373 380.478L392.197 386.904L392.393 386.651C392.768 386.168 429.949 338.163 436.196 326.735C440.04 319.87 441.439 311.885 440.163 304.106L440.12 303.916L439.973 303.79C436.943 301.229 433.139 299.786 429.188 299.699C425.237 299.611 421.374 300.885 418.236 303.309C403.15 315.094 390.985 330.255 382.703 347.595L378.003 357.463L335.373 361.704V380.478Z" fill="#6C63FF"/>
<path d="M289.271 514.739L278.324 540.449C276.754 540.56 275.181 540.65 273.607 540.718C272.362 540.783 271.123 540.83 269.872 540.865L269.448 541L269.099 540.889C267.418 540.941 265.731 540.975 264.038 540.988C263.323 540.994 262.607 541 261.886 541C261.549 541 261.211 541 260.874 540.994L261.601 538.483L262.456 535.509L265.853 523.728L270.757 506.719L278.051 509.876L289.271 514.739Z" fill="#FFB6B6"/>
<path d="M368.152 516.593C362.527 519.333 356.788 521.854 350.935 524.156L345.211 514.446L363.661 506.273L368.152 516.593Z" fill="#FFB6B6"/>
<path d="M407.083 472.462V492.914C403.681 495.449 400.21 497.893 396.671 500.248V472.462H407.083Z" fill="#CACACA"/>
<path d="M443.659 459.508C440.733 462.782 437.72 465.971 434.62 469.077C427.323 476.407 419.575 483.265 411.423 489.611H365.005C363.773 489.611 362.555 489.346 361.432 488.833C360.31 488.32 359.309 487.571 358.496 486.637L358.49 486.619C357.523 485.517 356.85 484.184 356.536 482.747L356.53 482.735C356.399 482.118 356.333 481.489 356.332 480.858V468.261C356.334 465.941 357.248 463.717 358.874 462.075C360.5 460.434 362.705 459.511 365.005 459.508H443.659Z" fill="#3F3D56"/>
<path d="M462.784 410.343L457.753 432.086C458.245 435.236 458.409 438.429 458.242 441.614C455.857 444.84 453.396 448.003 450.86 451.1C448.522 453.958 446.121 456.76 443.659 459.508C440.733 462.782 437.72 465.971 434.62 469.077C426.546 471.635 417.03 472.679 407.083 472.75C403.652 472.779 400.167 472.685 396.671 472.497C382.496 471.746 368.158 469.452 356.414 467.07C353.308 466.448 350.388 465.815 347.7 465.199C342.611 464.043 338.353 462.964 335.27 462.142C331.797 461.227 329.82 460.634 329.82 460.634L316.61 482.946L304.616 503.199L289.161 523.094C287.683 523.229 286.204 523.342 284.723 523.434C283.152 523.546 281.58 523.636 280.005 523.704C278.76 523.769 277.521 523.816 276.271 523.851L275.846 523.986L275.497 523.874L269.89 522.073L267.999 521.469L261.2 519.286C261.2 519.286 262.718 514.464 265.376 506.42C266.353 503.469 273.275 481.65 280.517 462.6C282.663 456.944 284.885 451.206 287.171 445.498C289.044 440.81 290.952 436.14 292.883 431.534C296.24 423.549 312.457 419.243 331.553 416.984C332.524 416.873 333.502 416.761 334.485 416.656C344.216 415.623 354.541 415.089 364.197 414.843C369.03 414.719 373.695 414.673 378.035 414.667C379.436 414.667 380.799 414.671 382.124 414.678H382.13C385.707 414.696 388.999 414.749 391.896 414.807C392.46 414.819 393.007 414.837 393.542 414.849H393.548C393.908 414.854 394.263 414.866 394.612 414.872C400.947 415.036 404.832 415.236 404.832 415.236L406.339 403.314L406.647 400.909L406.938 398.62V398.615L406.973 398.327L407.211 398.321L411.399 398.239L446.602 397.547L461.596 396.906L462.784 410.343Z" fill="#2F2E41"/>
<path d="M367.256 506.796C365.82 507.535 364.371 508.262 362.917 508.966C357.292 511.706 351.553 514.227 345.699 516.529C344.03 517.192 342.355 517.831 340.662 518.447C340.476 518.183 340.284 517.919 340.092 517.655C332.018 506.479 326.993 499.356 316.61 482.946C312.265 476.082 307.896 468.924 303.656 461.614L334.357 447.158L337.8 445.539L347.7 465.199L356.53 482.735L358.496 486.637L367.256 506.796Z" fill="#2F2E41"/>
<path d="M417.054 269.976C432.675 269.976 445.339 257.204 445.339 241.448C445.339 225.692 432.675 212.919 417.054 212.919C401.433 212.919 388.77 225.692 388.77 241.448C388.77 257.204 401.433 269.976 417.054 269.976Z" fill="#FFB6B6"/>
<path d="M467.543 330.124C467.31 306.562 467.996 313.385 466.147 305.271C461.179 283.458 440.559 279.48 436.964 278.987C436.581 277.959 435.993 277.021 435.235 276.232C434.477 275.444 433.567 274.82 432.56 274.402C431.554 273.983 430.473 273.777 429.384 273.798C428.295 273.819 427.222 274.065 426.232 274.522L419.35 278.122C412.678 281.202 416.728 285.652 414.424 292.675L412.004 300.126L392.175 355.41L396.189 376.443L396.195 376.455L398.899 390.624L406.919 399.839L406.769 398.368L406.589 398.65L406.583 398.656L406.118 399.354C406.764 399.712 407.403 400.064 408.032 400.416C409.66 401.319 411.248 402.205 412.796 403.074C413.168 403.285 413.534 403.49 413.901 403.701H413.907C414.139 403.83 414.372 403.959 414.599 404.089C420.404 407.362 398.917 413.323 403.692 416.122C404.355 416.509 405.013 416.896 405.658 417.277C427.646 430.249 445.189 446.407 450.86 451.101C453.396 448.003 455.857 444.84 458.242 441.614C460.405 438.698 462.501 435.731 464.53 432.713C464.884 430.355 465.123 427.996 465.356 425.685C465.635 422.904 464.181 397.142 464.669 394.308C464.884 393.053 464.058 391.862 463.262 390.712C462.523 389.638 461.825 388.629 461.97 387.679C462.121 386.699 463.192 385.631 464.233 384.593C465.367 383.454 466.542 382.281 466.711 381.043C467.176 377.593 465.262 374.132 465.623 370.659C466.216 365.009 466.672 359.341 466.99 353.656C467.438 345.806 467.622 337.962 467.543 330.124Z" fill="#6C63FF"/>
<path d="M308.01 387.907C309.178 386.666 310.601 385.698 312.18 385.071C313.759 384.445 315.455 384.175 317.148 384.281C318.842 384.387 320.491 384.866 321.981 385.685C323.471 386.503 324.765 387.641 325.772 389.019L365.158 376.68L359.197 397.444L322.709 405.978C320.303 407.53 317.415 408.138 314.594 407.687C311.773 407.235 309.214 405.755 307.402 403.528C305.59 401.301 304.651 398.48 304.764 395.601C304.876 392.722 306.031 389.985 308.01 387.907L308.01 387.907Z" fill="#FFB6B6"/>
<path d="M355.76 399.394L428.866 384.192L409.893 388.932C410.108 388.358 431.432 331.364 434.022 318.579C435.664 310.87 434.643 302.827 431.128 295.784L431.032 295.615L430.853 295.539C427.205 294.005 423.148 293.77 419.35 294.873C415.552 295.976 412.24 298.352 409.961 301.608C399.037 317.39 391.9 335.517 389.112 354.557L387.539 365.39L361.764 373.167L355.76 399.394Z" fill="#6C63FF"/>
<path d="M219.517 376.178C219.773 376.931 220.259 377.582 220.905 378.038C221.552 378.495 222.325 378.733 223.113 378.719L238.523 378.319C239.318 378.303 240.086 378.029 240.713 377.536C241.34 377.044 241.792 376.36 242.002 375.587L244.183 352.068C244.956 352.421 245.798 352.596 246.648 352.579C248.138 352.541 249.552 351.908 250.579 350.818C251.606 349.729 252.162 348.273 252.125 346.77C252.087 345.267 251.459 343.841 250.379 342.805C249.299 341.769 247.856 341.208 246.366 341.246C246.026 341.244 245.688 341.28 245.356 341.351C244.995 340.958 244.556 340.644 244.068 340.432C243.579 340.219 243.052 340.112 242.521 340.118L218.817 340.735C218.62 340.742 218.425 340.767 218.232 340.808C217.713 340.906 217.22 341.115 216.787 341.421C216.353 341.727 215.99 342.123 215.722 342.583C215.453 343.042 215.285 343.554 215.229 344.084C215.174 344.615 215.231 345.151 215.398 345.657L219.517 376.178ZM244.63 350.471L246.181 344.866C246.358 344.219 246.362 343.536 246.193 342.886C246.269 342.886 246.335 342.85 246.41 342.85C247.474 342.828 248.503 343.232 249.272 343.974C250.041 344.716 250.487 345.735 250.512 346.809C250.537 347.882 250.139 348.921 249.405 349.698C248.672 350.476 247.662 350.928 246.598 350.956C245.911 350.978 245.23 350.81 244.63 350.471Z" fill="#2F2E41"/>
<path d="M218.232 340.808C218.737 343.721 224.415 345.768 231.242 345.412C237.52 345.121 242.653 342.897 243.593 340.262C243.245 340.158 242.883 340.109 242.521 340.118L218.817 340.735C218.62 340.742 218.425 340.767 218.232 340.808Z" fill="#3F3D56"/>
<path d="M115.153 319.517V369.799C115.154 370.44 115.406 371.055 115.856 371.508C116.305 371.961 116.914 372.216 117.549 372.216H191.424C192.06 372.216 192.669 371.961 193.118 371.508C193.567 371.055 193.82 370.44 193.82 369.799V319.517C193.819 318.877 193.566 318.263 193.117 317.811C192.668 317.358 192.059 317.104 191.424 317.103H117.549C116.914 317.104 116.306 317.358 115.857 317.811C115.408 318.263 115.155 318.877 115.153 319.517Z" fill="#3F3D56"/>
<path d="M116.886 320.143V369.179C116.887 369.522 117.022 369.85 117.262 370.092C117.502 370.334 117.827 370.47 118.167 370.471H190.809C191.149 370.47 191.474 370.334 191.714 370.092C191.954 369.85 192.089 369.522 192.09 369.179V320.143C192.09 319.8 191.955 319.471 191.715 319.229C191.475 318.986 191.149 318.849 190.809 318.849H118.167C117.827 318.849 117.501 318.986 117.261 319.229C117.021 319.471 116.886 319.8 116.886 320.143Z" fill="#6C63FF"/>
<path d="M113.608 379.606C113.743 379.777 113.916 379.915 114.111 380.009C114.307 380.104 114.522 380.152 114.739 380.151H193.842C194.058 380.151 194.271 380.102 194.467 380.008C194.662 379.914 194.834 379.777 194.97 379.608C195.106 379.439 195.204 379.241 195.254 379.028C195.305 378.816 195.309 378.596 195.264 378.382L194.036 372.499C193.986 372.259 193.876 372.036 193.718 371.85C193.559 371.663 193.357 371.52 193.13 371.433C192.966 371.367 192.79 371.334 192.614 371.334H115.962C115.785 371.334 115.61 371.367 115.445 371.433C115.218 371.52 115.016 371.663 114.858 371.85C114.699 372.036 114.59 372.259 114.539 372.499L113.311 378.382C113.267 378.595 113.271 378.816 113.323 379.028C113.374 379.239 113.472 379.437 113.608 379.606Z" fill="#2F2E41"/>
<path d="M189.9 373.868H191.768C191.925 373.868 192.052 373.74 192.052 373.582V372.68C192.052 372.522 191.925 372.394 191.768 372.394H189.9C189.743 372.394 189.616 372.522 189.616 372.68V373.582C189.616 373.74 189.743 373.868 189.9 373.868Z" fill="#3F3D56"/>
<path d="M185.027 373.868H186.895C187.052 373.868 187.179 373.74 187.179 373.582V372.68C187.179 372.522 187.052 372.394 186.895 372.394H185.027C184.87 372.394 184.743 372.522 184.743 372.68V373.582C184.743 373.74 184.87 373.868 185.027 373.868Z" fill="#3F3D56"/>
<path d="M180.154 373.868H182.023C182.179 373.868 182.307 373.74 182.307 373.582V372.68C182.307 372.522 182.179 372.394 182.023 372.394H180.154C179.997 372.394 179.87 372.522 179.87 372.68V373.582C179.87 373.74 179.997 373.868 180.154 373.868Z" fill="#3F3D56"/>
<path d="M175.281 373.868H177.15C177.307 373.868 177.434 373.74 177.434 373.582V372.68C177.434 372.522 177.307 372.394 177.15 372.394H175.281C175.125 372.394 174.997 372.522 174.997 372.68V373.582C174.997 373.74 175.125 373.868 175.281 373.868Z" fill="#3F3D56"/>
<path d="M170.409 373.868H172.277C172.434 373.868 172.561 373.74 172.561 373.582V372.68C172.561 372.522 172.434 372.394 172.277 372.394H170.409C170.252 372.394 170.125 372.522 170.125 372.68V373.582C170.125 373.74 170.252 373.868 170.409 373.868Z" fill="#3F3D56"/>
<path d="M165.536 373.868H167.405C167.561 373.868 167.688 373.74 167.688 373.582V372.68C167.688 372.522 167.561 372.394 167.405 372.394H165.536C165.379 372.394 165.252 372.522 165.252 372.68V373.582C165.252 373.74 165.379 373.868 165.536 373.868Z" fill="#3F3D56"/>
<path d="M160.664 373.868H162.532C162.689 373.868 162.816 373.74 162.816 373.582V372.68C162.816 372.522 162.689 372.394 162.532 372.394H160.664C160.507 372.394 160.38 372.522 160.38 372.68V373.582C160.38 373.74 160.507 373.868 160.664 373.868Z" fill="#3F3D56"/>
<path d="M155.791 373.868H157.659C157.816 373.868 157.943 373.74 157.943 373.582V372.68C157.943 372.522 157.816 372.394 157.659 372.394H155.791C155.634 372.394 155.507 372.522 155.507 372.68V373.582C155.507 373.74 155.634 373.868 155.791 373.868Z" fill="#3F3D56"/>
<path d="M150.918 373.868H152.787C152.943 373.868 153.071 373.74 153.071 373.582V372.68C153.071 372.522 152.943 372.394 152.787 372.394H150.918C150.761 372.394 150.634 372.522 150.634 372.68V373.582C150.634 373.74 150.761 373.868 150.918 373.868Z" fill="#3F3D56"/>
<path d="M146.046 373.868H147.914C148.071 373.868 148.198 373.74 148.198 373.582V372.68C148.198 372.522 148.071 372.394 147.914 372.394H146.046C145.889 372.394 145.762 372.522 145.762 372.68V373.582C145.762 373.74 145.889 373.868 146.046 373.868Z" fill="#3F3D56"/>
<path d="M141.173 373.868H143.041C143.198 373.868 143.325 373.74 143.325 373.582V372.68C143.325 372.522 143.198 372.394 143.041 372.394H141.173C141.016 372.394 140.889 372.522 140.889 372.68V373.582C140.889 373.74 141.016 373.868 141.173 373.868Z" fill="#3F3D56"/>
<path d="M136.3 373.868H138.169C138.325 373.868 138.453 373.74 138.453 373.582V372.68C138.453 372.522 138.325 372.394 138.169 372.394H136.3C136.143 372.394 136.016 372.522 136.016 372.68V373.582C136.016 373.74 136.143 373.868 136.3 373.868Z" fill="#3F3D56"/>
<path d="M131.427 373.868H133.296C133.453 373.868 133.58 373.74 133.58 373.582V372.68C133.58 372.522 133.453 372.394 133.296 372.394H131.427C131.271 372.394 131.144 372.522 131.144 372.68V373.582C131.144 373.74 131.271 373.868 131.427 373.868Z" fill="#3F3D56"/>
<path d="M126.555 373.868H128.423C128.58 373.868 128.707 373.74 128.707 373.582V372.68C128.707 372.522 128.58 372.394 128.423 372.394H126.555C126.398 372.394 126.271 372.522 126.271 372.68V373.582C126.271 373.74 126.398 373.868 126.555 373.868Z" fill="#3F3D56"/>
<path d="M121.682 373.868H123.551C123.707 373.868 123.834 373.74 123.834 373.582V372.68C123.834 372.522 123.707 372.394 123.551 372.394H121.682C121.525 372.394 121.398 372.522 121.398 372.68V373.582C121.398 373.74 121.525 373.868 121.682 373.868Z" fill="#3F3D56"/>
<path d="M116.809 373.868H118.678C118.835 373.868 118.962 373.74 118.962 373.582V372.68C118.962 372.522 118.835 372.394 118.678 372.394H116.809C116.653 372.394 116.525 372.522 116.525 372.68V373.582C116.525 373.74 116.653 373.868 116.809 373.868Z" fill="#3F3D56"/>
<path d="M189.957 376.326H191.825C191.982 376.326 192.109 376.197 192.109 376.039V375.138C192.109 374.979 191.982 374.851 191.825 374.851H189.957C189.8 374.851 189.673 374.979 189.673 375.138V376.039C189.673 376.197 189.8 376.326 189.957 376.326Z" fill="#3F3D56"/>
<path d="M185.084 376.326H186.953C187.11 376.326 187.237 376.197 187.237 376.039V375.138C187.237 374.979 187.11 374.851 186.953 374.851H185.084C184.928 374.851 184.8 374.979 184.8 375.138V376.039C184.8 376.197 184.928 376.326 185.084 376.326Z" fill="#3F3D56"/>
<path d="M180.212 376.326H182.08C182.237 376.326 182.364 376.197 182.364 376.039V375.138C182.364 374.979 182.237 374.851 182.08 374.851H180.212C180.055 374.851 179.928 374.979 179.928 375.138V376.039C179.928 376.197 180.055 376.326 180.212 376.326Z" fill="#3F3D56"/>
<path d="M175.339 376.326H177.207C177.364 376.326 177.491 376.197 177.491 376.039V375.138C177.491 374.979 177.364 374.851 177.207 374.851H175.339C175.182 374.851 175.055 374.979 175.055 375.138V376.039C175.055 376.197 175.182 376.326 175.339 376.326Z" fill="#3F3D56"/>
<path d="M170.466 376.326H172.335C172.492 376.326 172.619 376.197 172.619 376.039V375.138C172.619 374.979 172.492 374.851 172.335 374.851H170.466C170.31 374.851 170.182 374.979 170.182 375.138V376.039C170.182 376.197 170.31 376.326 170.466 376.326Z" fill="#3F3D56"/>
<path d="M165.594 376.326H167.462C167.619 376.326 167.746 376.197 167.746 376.039V375.138C167.746 374.979 167.619 374.851 167.462 374.851H165.594C165.437 374.851 165.31 374.979 165.31 375.138V376.039C165.31 376.197 165.437 376.326 165.594 376.326Z" fill="#3F3D56"/>
<path d="M160.721 376.326H162.589C162.746 376.326 162.873 376.197 162.873 376.039V375.138C162.873 374.979 162.746 374.851 162.589 374.851H160.721C160.564 374.851 160.437 374.979 160.437 375.138V376.039C160.437 376.197 160.564 376.326 160.721 376.326Z" fill="#3F3D56"/>
<path d="M155.848 376.326H157.717C157.874 376.326 158.001 376.197 158.001 376.039V375.138C158.001 374.979 157.874 374.851 157.717 374.851H155.848C155.692 374.851 155.564 374.979 155.564 375.138V376.039C155.564 376.197 155.692 376.326 155.848 376.326Z" fill="#3F3D56"/>
<path d="M150.976 376.326H152.844C153.001 376.326 153.128 376.197 153.128 376.039V375.138C153.128 374.979 153.001 374.851 152.844 374.851H150.976C150.819 374.851 150.692 374.979 150.692 375.138V376.039C150.692 376.197 150.819 376.326 150.976 376.326Z" fill="#3F3D56"/>
<path d="M146.103 376.326H147.971C148.128 376.326 148.255 376.197 148.255 376.039V375.138C148.255 374.979 148.128 374.851 147.971 374.851H146.103C145.946 374.851 145.819 374.979 145.819 375.138V376.039C145.819 376.197 145.946 376.326 146.103 376.326Z" fill="#3F3D56"/>
<path d="M141.23 376.326H143.099C143.256 376.326 143.383 376.197 143.383 376.039V375.138C143.383 374.979 143.256 374.851 143.099 374.851H141.23C141.074 374.851 140.946 374.979 140.946 375.138V376.039C140.946 376.197 141.074 376.326 141.23 376.326Z" fill="#3F3D56"/>
<path d="M136.358 376.326H138.226C138.383 376.326 138.51 376.197 138.51 376.039V375.138C138.51 374.979 138.383 374.851 138.226 374.851H136.358C136.201 374.851 136.074 374.979 136.074 375.138V376.039C136.074 376.197 136.201 376.326 136.358 376.326Z" fill="#3F3D56"/>
<path d="M131.485 376.326H133.353C133.51 376.326 133.637 376.197 133.637 376.039V375.138C133.637 374.979 133.51 374.851 133.353 374.851H131.485C131.328 374.851 131.201 374.979 131.201 375.138V376.039C131.201 376.197 131.328 376.326 131.485 376.326Z" fill="#3F3D56"/>
<path d="M126.612 376.326H128.481C128.638 376.326 128.765 376.197 128.765 376.039V375.138C128.765 374.979 128.638 374.851 128.481 374.851H126.612C126.456 374.851 126.328 374.979 126.328 375.138V376.039C126.328 376.197 126.456 376.326 126.612 376.326Z" fill="#3F3D56"/>
<path d="M121.74 376.326H123.608C123.765 376.326 123.892 376.197 123.892 376.039V375.138C123.892 374.979 123.765 374.851 123.608 374.851H121.74C121.583 374.851 121.456 374.979 121.456 375.138V376.039C121.456 376.197 121.583 376.326 121.74 376.326Z" fill="#3F3D56"/>
<path d="M116.867 376.326H118.735C118.892 376.326 119.019 376.197 119.019 376.039V375.138C119.019 374.979 118.892 374.851 118.735 374.851H116.867C116.71 374.851 116.583 374.979 116.583 375.138V376.039C116.583 376.197 116.71 376.326 116.867 376.326Z" fill="#3F3D56"/>
<path d="M149.514 379.274H168.437C168.593 379.274 168.721 379.146 168.721 378.988V378.086C168.721 377.928 168.593 377.8 168.437 377.8H149.514C149.357 377.8 149.23 377.928 149.23 378.086V378.988C149.23 379.146 149.357 379.274 149.514 379.274Z" fill="#3F3D56"/>
<path d="M292.108 376.871L325.17 347.716C326.743 346.33 323.745 350.46 325.119 352.046C326.494 353.632 331.72 352.072 330.148 353.458L297.085 382.613L288.713 384.542L292.108 376.871Z" fill="#3F3D56"/>
<path d="M292.108 376.871L292.91 376.165C293.979 376.706 294.934 377.452 295.719 378.363C296.649 379.433 297.325 380.703 297.694 382.077L297.085 382.613L290.412 384.149L288.712 384.542L289.421 382.935L292.108 376.871Z" fill="#CCCCCC"/>
<path d="M289.421 382.935C289.669 383.045 289.888 383.212 290.06 383.423C290.232 383.634 290.353 383.883 290.412 384.149L288.713 384.542L289.421 382.935Z" fill="#3F3D56"/>
<path d="M507.828 283.427C504.71 288.132 499.719 291.388 494.345 293.002C492.161 293.657 489.908 294.043 487.632 294.152C487.351 291.557 486.678 289.02 485.637 286.63C485.743 289.174 485.392 291.716 484.602 294.134C481.185 293.939 477.845 293.036 474.789 291.482C468.827 288.402 464.237 282.512 463.219 275.829C462.021 268.026 465.529 260.364 466.797 252.573C468.071 244.781 465.68 234.913 458.118 232.865C452.36 231.305 453.005 231.98 448.218 235.564C453.198 242.991 434.805 270.206 427.278 267.833C423.022 266.491 420.298 262.552 419.419 262.552C413.504 272.831 424.643 290.151 413.416 293.747L414.341 292.814C421.118 284.407 406.954 266.612 413.731 258.205C415.621 255.852 417.634 253.065 417.075 250.091C416.546 247.263 412.096 245.767 410.793 248.09C413.137 242.675 409.676 235.447 403.947 234.056C398.857 232.819 398.95 234.344 393.843 235.007C393.509 232.781 392.885 230.609 391.988 228.547C392.081 230.769 391.824 232.991 391.226 235.13C389.421 235.095 387.679 234.459 386.27 233.323C382.105 229.938 382.948 222.827 386.665 218.949C390.388 215.071 395.92 213.675 401.195 212.771C402.729 201.999 432.196 200.875 436.102 211.639C437.765 203.601 447.741 199.43 455.495 201.923C463.248 204.417 468.629 211.721 471.462 219.418C474.294 227.11 475.086 235.388 476.831 243.403C478.576 251.417 481.525 259.578 487.597 265.04C493.67 270.496 503.564 272.303 509.963 267.234C511.981 272.514 510.94 278.716 507.828 283.427Z" fill="#2F2E41"/>
</g>
<path d="M32.7754 100.559L31.2939 80.7204C21.5892 76.0498 10.847 73.7306 0 73.9641C15.2603 85.3203 14.0379 108.018 24.6065 123.551C27.9412 128.371 32.36 132.408 37.5352 135.36C42.7105 138.313 48.5096 140.107 54.5028 140.609L67.203 147.643C68.6558 138.398 68.0097 128.961 65.3091 119.98C62.6086 110.999 57.9178 102.688 51.5599 95.621C47.9524 91.6902 43.8451 88.2124 39.3349 85.2697C36.5589 92.9429 32.7754 100.559 32.7754 100.559Z" fill="#F2F2F2"/>
<path d="M215.767 115.523C248.696 115.523 275.39 89.823 275.39 58.1208C275.39 26.4187 248.696 0.718979 215.767 0.718979C182.838 0.718979 156.144 26.4187 156.144 58.1208C156.144 89.823 182.838 115.523 215.767 115.523Z" fill="white"/>
<path d="M218.526 63.9761C229.264 63.9761 237.968 55.5959 237.968 45.2584C237.968 34.9209 229.264 26.5407 218.526 26.5407C207.789 26.5407 199.084 34.9209 199.084 45.2584C199.084 55.5959 207.789 63.9761 218.526 63.9761Z" fill="#FFB8B8"/>
<path d="M235.644 32.8931C235.644 32.8931 240.706 23.5766 229.57 22.7296C229.57 22.7296 220.076 14.4381 210.399 21.2138C210.399 21.2138 205.12 21.2138 202.234 26.9644C202.234 26.9644 198.082 25.4486 197.17 29.5053C197.17 29.5053 194.132 37.9749 197.17 45.5975C200.208 53.2202 201.217 54.0671 201.217 54.0671C201.217 54.0671 199.086 44.6079 211.236 43.7609C223.386 42.9139 234.532 35.586 235.545 44.9025C236.557 54.2191 237.67 50.0104 237.67 50.0104C237.67 50.0104 247.287 36.7045 235.644 32.8931Z" fill="#2F2E41"/>
<path d="M260.606 96.2895C250.276 107.605 235.739 114.556 220.132 115.642C204.526 116.728 189.102 111.861 177.189 102.093L182.303 88.3552C183.459 85.9151 185.283 83.8239 187.579 82.3058C189.875 80.7877 192.558 79.9 195.338 79.7379L198.591 79.5456L206.349 73.1041C206.349 73.1041 227.252 72.3855 226.942 72.0414L239.603 79.3735L239.593 79.323L244.57 79.6164C247.351 79.7779 250.033 80.6653 252.329 82.1835C254.626 83.7017 256.449 85.7933 257.605 88.2338L260.606 96.2895Z" fill="#6C63FF"/>
<path d="M215.767 116.242C203.827 116.242 192.155 112.833 182.228 106.447C172.3 100.06 164.562 90.9829 159.993 80.3628C155.424 69.7426 154.228 58.0564 156.557 46.7821C158.887 35.5077 164.636 25.1516 173.079 17.0232C181.522 8.89488 192.279 3.35941 203.99 1.1168C215.7 -1.1258 227.838 0.025179 238.869 4.42421C249.901 8.82324 259.329 16.2727 265.962 25.8307C272.596 35.3886 276.137 46.6256 276.137 58.1209C276.118 73.5301 269.752 88.3032 258.435 99.1992C247.117 110.095 231.772 116.224 215.767 116.242ZM215.767 1.43817C204.123 1.43816 192.74 4.76254 183.057 10.9909C173.375 17.2193 165.829 26.0719 161.373 36.4293C156.917 46.7867 155.751 58.1837 158.023 69.1791C160.294 80.1745 165.902 90.2744 174.136 98.2016C182.369 106.129 192.86 111.527 204.281 113.714C215.702 115.902 227.54 114.779 238.298 110.489C249.056 106.199 258.251 98.9335 264.72 89.6121C271.19 80.2907 274.643 69.3316 274.643 58.1209C274.625 43.0929 268.416 28.6853 257.379 18.059C246.341 7.4326 231.376 1.45521 215.767 1.43817Z" fill="#757BC8"/>
<path d="M76.6034 206.126C109.532 206.126 136.226 180.426 136.226 148.724C136.226 117.022 109.532 91.3219 76.6034 91.3219C43.6746 91.3219 16.9806 117.022 16.9806 148.724C16.9806 180.426 43.6746 206.126 76.6034 206.126Z" fill="white"/>
<path d="M48.9689 130.051C51.4342 122.487 57.0406 115.549 64.794 112.992C72.5479 110.434 83.9016 114.33 89.7308 119.923C100.394 130.154 102.996 165.301 95.6699 176.407C94.2128 176.333 89.1848 176.278 87.7101 176.225L85.6238 169.531V176.159C83.2743 176.089 80.9064 176.041 78.5201 176.014C70.5194 175.919 62.8687 172.84 57.1765 167.427C51.4843 162.013 48.1939 154.685 47.9971 146.984C47.8062 139.617 47.9973 133.032 48.9689 130.051Z" fill="#2F2E41"/>
<path d="M75.7191 155.121C85.1036 155.121 92.7112 147.797 92.7112 138.762C92.7112 129.727 85.1036 122.403 75.7191 122.403C66.3347 122.403 58.7271 129.727 58.7271 138.762C58.7271 147.797 66.3347 155.121 75.7191 155.121Z" fill="#9E616A"/>
<path d="M61.0543 124.395L80.6191 114.963C84.619 116.698 88.0638 119.432 90.5964 122.881C93.1289 126.33 94.6569 130.369 95.0219 134.578L95.5096 140.202L87.3168 138.194L86.4192 131.003L85.028 137.633L81.2471 136.707L81.283 125.543L77.4998 136.699L63.9961 133.712L61.0543 124.395Z" fill="#2F2E41"/>
<path d="M120.847 186.71C110.518 198.026 95.9808 204.977 80.3742 206.062C64.7676 207.148 49.3434 202.282 37.4313 192.514L42.5452 178.776C43.7009 176.336 45.5247 174.244 47.8209 172.726C50.1172 171.208 52.7994 170.321 55.5798 170.158L58.8332 169.966L66.5909 163.525C66.5909 163.525 87.4936 162.806 87.1835 162.462L99.8449 169.794L99.8344 169.743L104.812 170.037C107.592 170.198 110.275 171.086 112.571 172.604C114.868 174.122 116.691 176.214 117.846 178.654L120.847 186.71Z" fill="#6C63FF"/>
<path d="M76.6036 206.845C64.6636 206.845 52.9918 203.436 43.0641 197.049C33.1363 190.663 25.3986 181.586 20.8294 170.966C16.2602 160.345 15.0646 148.659 17.394 137.385C19.7234 126.111 25.473 115.754 33.9159 107.626C42.3587 99.4978 53.1155 93.9623 64.8261 91.7197C76.5366 89.4771 88.6749 90.6281 99.706 95.0271C110.737 99.4261 120.166 106.876 126.799 116.434C133.433 125.991 136.973 137.229 136.973 148.724C136.955 164.133 130.589 178.906 119.271 189.802C107.954 200.698 92.609 206.827 76.6036 206.845ZM76.6036 92.0411C64.9591 92.041 53.576 95.3654 43.894 101.594C34.2119 107.822 26.6656 116.675 22.2095 127.032C17.7533 137.39 16.5874 148.787 18.8591 159.782C21.1308 170.777 26.7382 180.877 34.9721 188.805C43.206 196.732 53.6967 202.13 65.1175 204.317C76.5382 206.504 88.3762 205.382 99.1344 201.092C109.892 196.802 119.088 189.536 125.557 180.215C132.026 170.894 135.479 159.935 135.479 148.724C135.462 133.696 129.253 119.288 118.215 108.662C107.178 98.0355 92.213 92.0581 76.6036 92.041V92.0411Z" fill="#8E94F2"/>
<path d="M166.367 266.61H90.4346C88.3996 266.608 86.4486 265.829 85.0097 264.443C83.5707 263.058 82.7613 261.179 82.759 259.22V214.195C82.7613 212.236 83.5707 210.357 85.0097 208.972C86.4486 207.587 88.3996 206.807 90.4346 206.805H166.367C168.402 206.807 170.353 207.587 171.792 208.972C173.231 210.357 174.041 212.236 174.043 214.195V259.22C174.041 261.179 173.231 263.058 171.792 264.443C170.353 265.829 168.402 266.608 166.367 266.61Z" fill="#E6E6E6"/>
<path d="M136.198 260.81H95.7722C93.8663 260.808 92.0391 260.079 90.6914 258.781C89.3437 257.484 88.5856 255.725 88.5834 253.89V219.525C88.5856 217.69 89.3437 215.931 90.6914 214.634C92.0391 213.336 93.8663 212.607 95.7722 212.605H161.03C162.936 212.607 164.763 213.336 166.111 214.634C167.458 215.931 168.216 217.69 168.219 219.525V229.983C168.209 238.156 164.832 245.992 158.829 251.771C152.826 257.55 144.687 260.801 136.198 260.81Z" fill="white"/>
<path d="M154.52 231.422H102.282C101.83 231.422 101.397 231.249 101.077 230.941C100.758 230.634 100.578 230.217 100.578 229.782C100.578 229.347 100.758 228.929 101.077 228.622C101.397 228.314 101.83 228.141 102.282 228.141H154.52C154.972 228.141 155.405 228.314 155.725 228.622C156.044 228.929 156.224 229.347 156.224 229.782C156.224 230.217 156.044 230.634 155.725 230.941C155.405 231.249 154.972 231.422 154.52 231.422Z" fill="#6C63FF"/>
<path d="M110.453 237.903H102.282C101.83 237.903 101.397 237.73 101.077 237.423C100.758 237.115 100.578 236.698 100.578 236.263C100.578 235.828 100.758 235.41 101.077 235.103C101.397 234.795 101.83 234.622 102.282 234.622H110.453C110.905 234.622 111.339 234.795 111.658 235.103C111.978 235.41 112.157 235.828 112.157 236.263C112.157 236.698 111.978 237.115 111.658 237.423C111.339 237.73 110.905 237.903 110.453 237.903Z" fill="#6C63FF"/>
<path d="M124.926 244.384H102.282C101.831 244.383 101.398 244.21 101.08 243.903C100.761 243.595 100.582 243.178 100.582 242.744C100.582 242.309 100.761 241.893 101.08 241.585C101.398 241.278 101.831 241.105 102.282 241.104H124.926C125.377 241.105 125.81 241.278 126.128 241.585C126.447 241.893 126.626 242.309 126.626 242.744C126.626 243.178 126.447 243.595 126.128 243.903C125.81 244.21 125.377 244.383 124.926 244.384Z" fill="#6C63FF"/>
<path d="M80.1092 221.373C88.9804 221.373 96.172 214.449 96.172 205.908C96.172 197.367 88.9804 190.444 80.1092 190.444C71.2379 190.444 64.0464 197.367 64.0464 205.908C64.0464 214.449 71.2379 221.373 80.1092 221.373Z" fill="#3F3D56"/>
<path d="M363.547 62.3937H287.614C285.579 62.3915 283.628 61.6122 282.189 60.2269C280.75 58.8415 279.941 56.9632 279.939 55.004V9.9785C279.941 8.0193 280.75 6.14099 282.189 4.75562C283.628 3.37026 285.579 2.59098 287.614 2.58876H363.547C365.582 2.59097 367.533 3.37025 368.972 4.75561C370.411 6.14098 371.22 8.0193 371.223 9.9785V55.004C371.22 56.9632 370.411 58.8415 368.972 60.2269C367.533 61.6122 365.582 62.3915 363.547 62.3937Z" fill="#E6E6E6"/>
<path d="M333.378 56.5941H292.952C291.046 56.5921 289.219 55.8623 287.871 54.5649C286.523 53.2674 285.765 51.5083 285.763 49.6734V15.309C285.765 13.4741 286.523 11.7149 287.871 10.4175C289.219 9.12007 291.046 8.39028 292.952 8.38826H358.21C360.116 8.3903 361.943 9.1201 363.29 10.4175C364.638 11.715 365.396 13.4741 365.398 15.309V25.7668C365.389 33.9399 362.012 41.7756 356.009 47.5549C350.006 53.3341 341.867 56.5849 333.378 56.5941Z" fill="white"/>
<path d="M351.7 27.2054H299.462C299.01 27.2054 298.576 27.0326 298.257 26.725C297.937 26.4174 297.758 26.0002 297.758 25.5652C297.758 25.1302 297.937 24.713 298.257 24.4054C298.576 24.0978 299.01 23.925 299.462 23.925H351.7C352.152 23.925 352.585 24.0978 352.904 24.4054C353.224 24.713 353.403 25.1302 353.403 25.5652C353.403 26.0002 353.224 26.4174 352.904 26.725C352.585 27.0326 352.152 27.2054 351.7 27.2054Z" fill="#6C63FF"/>
<path d="M307.633 33.6867H299.462C299.01 33.6867 298.576 33.5139 298.257 33.2063C297.937 32.8987 297.758 32.4815 297.758 32.0464C297.758 31.6114 297.937 31.1942 298.257 30.8866C298.576 30.579 299.01 30.4062 299.462 30.4062H307.633C308.085 30.4062 308.518 30.579 308.838 30.8866C309.157 31.1942 309.337 31.6114 309.337 32.0464C309.337 32.4815 309.157 32.8987 308.838 33.2063C308.518 33.5139 308.085 33.6867 307.633 33.6867Z" fill="#6C63FF"/>
<path d="M322.106 40.1679H299.462C299.01 40.167 298.578 39.9938 298.259 39.6863C297.94 39.3787 297.761 38.962 297.761 38.5276C297.761 38.0932 297.94 37.6765 298.259 37.369C298.578 37.0615 299.01 36.8883 299.462 36.8873H322.106C322.557 36.8873 322.991 37.0602 323.31 37.3678C323.63 37.6754 323.809 38.0926 323.809 38.5276C323.809 38.9626 323.63 39.3799 323.31 39.6875C322.991 39.9951 322.557 40.1679 322.106 40.1679Z" fill="#6C63FF"/>
<path d="M277.289 71.0869C286.16 71.0869 293.352 64.1632 293.352 55.6224C293.352 47.0816 286.16 40.1579 277.289 40.1579C268.418 40.1579 261.226 47.0816 261.226 55.6224C261.226 64.1632 268.418 71.0869 277.289 71.0869Z" fill="#3F3D56"/>
<defs>
<clipPath id="clip0_44_24">
<rect width="494" height="494" fill="white" transform="translate(17 47)"/>
</clipPath>
</defs>
</svg>
