<svg width="331" height="363" viewBox="0 0 331 363" fill="none" xmlns="http://www.w3.org/2000/svg">
<path d="M311.051 298H19.9487C14.6579 298 9.58392 295.155 5.84282 290.092C2.10172 285.028 0 278.161 0 271C0 263.839 2.10172 256.972 5.84282 251.908C9.58392 246.845 14.6579 244 19.9487 244H311.051C316.342 244 321.416 246.845 325.157 251.908C328.898 256.972 331 263.839 331 271C331 278.161 328.898 285.028 325.157 290.092C321.416 295.155 316.342 298 311.051 298Z" fill="#CBB2FE"/>
<path d="M309.275 222H279.763C279.097 221.998 278.439 222.142 277.834 222.422C277.23 222.701 276.694 223.109 276.264 223.617C275.176 223.417 274.055 223.478 272.995 223.795C271.934 224.112 270.964 224.676 270.164 225.441C269.364 226.205 268.756 227.149 268.391 228.194C268.026 229.239 267.915 230.355 268.065 231.452C268.215 232.548 268.623 233.593 269.256 234.502C269.889 235.41 270.727 236.155 271.704 236.676C272.68 237.197 273.766 237.479 274.873 237.499C275.98 237.519 277.075 237.276 278.07 236.79L280.518 244.745C280.808 245.687 281.392 246.512 282.185 247.098C282.979 247.684 283.939 248 284.925 248H304.113C305.099 248 306.06 247.684 306.853 247.098C307.646 246.512 308.231 245.687 308.52 244.745L313.683 227.968C313.895 227.278 313.943 226.548 313.821 225.837C313.7 225.125 313.413 224.452 312.985 223.872C312.556 223.291 311.997 222.82 311.353 222.495C310.708 222.169 309.997 222 309.275 222V222ZM275.019 235.5C273.693 235.5 272.421 234.973 271.483 234.036C270.546 233.098 270.019 231.826 270.019 230.5C270.019 229.174 270.546 227.902 271.483 226.964C272.421 226.027 273.693 225.5 275.019 225.5C275.11 225.5 275.195 225.522 275.286 225.527C275.087 226.332 275.111 227.176 275.355 227.968L277.467 234.832C276.723 235.265 275.879 235.495 275.019 235.5V235.5Z" fill="#3F3D56"/>
<path d="M117.316 70L116.999 69.8472C99.9688 61.627 77.6673 61.6344 44.6861 69.874L44.334 69.962L44.2284 69.6146C40.7394 58.1841 36.7871 45.2377 44.212 38.8681C44.3161 20.1772 60.7248 5 80.8795 5C101.03 5 117.437 20.1694 117.547 38.8554C128.592 47.2933 123.328 59.7622 117.494 69.6966L117.316 70Z" fill="#2F2E41"/>
<path d="M222.777 29.796C222.472 31.3112 221.838 32.741 220.92 33.9848C220.002 35.2286 218.823 36.2561 217.465 36.9949C216.108 37.7336 214.604 38.1658 213.061 38.2608C211.518 38.3558 209.974 38.1114 208.535 37.5449L148.368 98L143 79.2285L202.757 23.0877C203.869 20.735 205.806 18.8719 208.2 17.8514C210.594 16.831 213.279 16.724 215.747 17.5509C218.215 18.3778 220.293 20.0811 221.589 22.3379C222.885 24.5948 223.307 27.2484 222.777 29.796L222.777 29.796Z" fill="#FFB6B6"/>
<path d="M74.0896 87.3293C74.0896 87.3293 68.6528 99.66 82.068 107.264C95.4832 114.868 142.37 104.363 149.978 102.896C157.585 101.429 186 58.8712 186 58.8712L181.982 38L144.298 70.7399L74.0896 87.3293Z" fill="#6C63FF"/>
<path d="M63.3684 156.286L64.1327 170.564C64.1327 170.564 61.8768 183.212 63.7322 185.941C65.5735 188.657 115.82 189 115.82 189C115.82 189 119.14 171.403 122 156L63.3684 156.286Z" fill="#FFB6B6"/>
<path d="M208.217 348L219 345.857L215.914 303L200 306.163L208.217 348Z" fill="#FFB6B6"/>
<path d="M223.264 293L233 288.608L220.37 248L206 254.483L223.264 293Z" fill="#FFB6B6"/>
<path d="M232 269.58L213.597 280L168.212 207.069C136.351 228.534 105.196 238.814 73.7878 244.299C63.1689 246.19 52.3424 245.231 50.3038 234.423C50.2085 233.918 50.1325 233.41 50.0758 232.899C48.8219 221.094 63.5068 205.962 65.3735 191.518L105.564 189.105L110.52 195.46L156.998 166.884C166.345 161.138 178.639 164.246 184.457 173.827C184.764 174.333 185.049 174.851 185.312 175.382L232 269.58Z" fill="#2F2E41"/>
<path d="M220 319.038L199.009 321L160.949 242.708C123.207 249.237 87.6012 251.328 56.8037 243.431C46.3764 240.794 40.0025 229.964 42.5673 219.243C42.6871 218.741 42.8258 218.246 42.9831 217.755C46.669 206.444 56.3173 198.441 63.9189 186L119.444 186.848L113.242 208.371L167.181 201.351C178.028 199.939 187.934 207.836 189.307 218.989C189.38 219.578 189.427 220.169 189.449 220.763L220 319.038Z" fill="#2F2E41"/>
<path d="M85.5 58C97.9264 58 108 47.9264 108 35.5C108 23.0736 97.9264 13 85.5 13C73.0736 13 63 23.0736 63 35.5C63 47.9264 73.0736 58 85.5 58Z" fill="#FFB6B6"/>
<path d="M72.1016 67L93.0059 69.4178C93.8874 69.5198 94.7147 69.8896 95.3723 70.4757C96.03 71.0617 96.4853 71.8349 96.6748 72.6874L99.9992 87.6431L120.723 111.636C120.723 111.636 128.164 125.354 125.374 140.9C122.583 156.447 121.357 167.999 121.357 167.999C121.357 167.999 65.7662 188.491 63.9058 185.747C62.0454 183.004 61.4416 170.542 61.4416 170.542L54 89.1501C54 89.1501 62.3719 75.4324 67.0229 75.4324C70.0247 75.3329 69.6396 68.6911 72.1016 67Z" fill="#6C63FF"/>
<path d="M121.5 173C124.538 173 127 170.314 127 167C127 163.686 124.538 161 121.5 161C118.462 161 116 163.686 116 167C116 170.314 118.462 173 121.5 173Z" fill="#6C63FF"/>
<path d="M203 337.077L218.969 329L221.979 336.087L242.173 340.206C243.17 340.41 244.077 340.929 244.761 341.69C245.445 342.45 245.87 343.411 245.975 344.433C246.079 345.454 245.857 346.483 245.342 347.368C244.826 348.253 244.043 348.949 243.108 349.354L223.597 357.795L217.256 352.24L218.92 359.817L211.564 363L203 337.077Z" fill="#2F2E41"/>
<path d="M219 289.328L234.778 281L237.901 288.006L258.102 291.753C259.1 291.938 260.013 292.44 260.708 293.185C261.403 293.93 261.844 294.88 261.966 295.896C262.087 296.912 261.884 297.94 261.385 298.831C260.887 299.722 260.119 300.429 259.193 300.848L239.891 309.602L233.474 304.181L235.265 311.7L227.987 315L219 289.328Z" fill="#2F2E41"/>
<path d="M72.6091 29C66.7222 29.0099 60.9765 27.1284 56.1608 23.6138L56 23.4969V23.2933C56.0065 17.3828 58.2714 11.7163 62.298 7.53698C66.3245 3.35762 71.7839 1.00671 77.4783 1H86.5217C92.2161 1.00671 97.6755 3.35762 101.702 7.53698C105.729 11.7163 107.994 17.3828 108 23.2933C107.994 24.6461 107.479 25.943 106.566 26.9078C105.652 27.8726 104.412 28.4291 103.109 28.4587L73.1173 28.9954C72.9481 28.9984 72.7781 29 72.6091 29Z" fill="#2F2E41"/>
<path d="M109.961 19.0536C112.882 17.3673 113.37 12.7447 111.051 8.72865C108.732 4.71262 104.485 2.824 101.564 4.51029C98.6436 6.19659 98.1555 10.8192 100.474 14.8353C102.793 18.8513 107.04 20.7399 109.961 19.0536Z" fill="#2F2E41"/>
<path d="M64.2811 14.5733C67.5602 11.2943 68.2852 6.7028 65.9004 4.31802C63.5156 1.93324 58.9241 2.65821 55.6451 5.93728C52.366 9.21636 51.641 13.8078 54.0258 16.1926C56.4106 18.5774 61.002 17.8524 64.2811 14.5733Z" fill="#2F2E41"/>
<path d="M163.321 203.955C161.789 204.097 160.244 203.901 158.795 203.381C157.346 202.861 156.029 202.03 154.937 200.947C153.844 199.863 153.002 198.553 152.471 197.108C151.939 195.664 151.731 194.121 151.861 192.588L77 152.481L93.3738 142L164.002 182.948C166.564 183.337 168.894 184.651 170.552 186.643C172.209 188.634 173.078 191.164 172.994 193.754C172.911 196.343 171.88 198.812 170.097 200.692C168.314 202.572 165.903 203.733 163.321 203.955V203.955Z" fill="#FFB6B6"/>
<path d="M65.2577 79.0554C65.2577 79.0554 51.7977 77.3839 48.3432 92.3996C44.8886 107.415 68.5685 149.275 72.1815 156.136C75.7945 162.996 125.038 178 125.038 178L144 168.178L101.543 141.491L65.2577 79.0554Z" fill="#6C63FF"/>
</svg>
