<svg width="361" height="395" viewBox="0 0 361 395" fill="none" xmlns="http://www.w3.org/2000/svg">
<path d="M157.092 388.257C145.954 378.845 139.188 363.977 140.963 349.503C142.737 335.029 153.726 321.723 167.981 318.649C182.236 315.576 198.485 324.084 202.815 338.009C205.198 311.162 207.943 283.191 222.217 260.329C235.141 239.628 257.525 224.815 281.785 222.165C306.045 219.515 331.588 229.524 346.718 248.672C361.848 267.82 365.553 295.658 354.956 317.641C347.15 333.836 332.768 345.888 317.699 355.693C269.007 387.11 210.608 399.886 153.246 391.67L157.092 388.257Z" fill="#CBB2FE"/>
<path d="M322.728 230.079C302.71 246.383 284.346 264.619 267.902 284.521C242.166 315.562 221.34 350.364 206.15 387.715C205.038 390.44 209.462 391.626 210.562 388.932C235.416 328.228 275.093 274.724 325.963 233.314C328.248 231.454 324.993 228.234 322.728 230.079Z" fill="#F0E1FF"/>
<path d="M16 225.5C24.8366 225.5 32 218.337 32 209.5C32 200.663 24.8366 193.5 16 193.5C7.16344 193.5 0 200.663 0 209.5C0 218.337 7.16344 225.5 16 225.5Z" fill="#6C63FF"/>
<path d="M85.5989 381.783H73.3389L67.5059 334.495L85.6009 334.496L85.5989 381.783Z" fill="#FFB8B8"/>
<path d="M64.5817 378.28H88.2255V393.167H49.6948C49.6948 391.212 50.0799 389.276 50.8281 387.47C51.5762 385.664 52.6727 384.022 54.0551 382.64C55.4375 381.258 57.0786 380.161 58.8848 379.413C60.6909 378.665 62.6268 378.28 64.5817 378.28V378.28Z" fill="#2F2E41"/>
<path d="M146.599 381.783H134.339L128.506 334.495L146.601 334.496L146.599 381.783Z" fill="#FFB8B8"/>
<path d="M125.582 378.28H149.226V393.167H110.695C110.695 391.212 111.08 389.276 111.828 387.47C112.576 385.664 113.673 384.022 115.055 382.64C116.437 381.258 118.079 380.161 119.885 379.413C121.691 378.665 123.627 378.28 125.582 378.28V378.28Z" fill="#2F2E41"/>
<path d="M24.0977 212.67C23.2157 211.37 22.6294 209.893 22.38 208.343C22.1306 206.792 22.2242 205.206 22.6542 203.695C23.0842 202.185 23.8402 200.787 24.8689 199.6C25.8976 198.413 27.174 197.467 28.6082 196.827L70.284 81.9599L90.7911 93.1513L43.2063 202.922C44.1219 205.403 44.0957 208.133 43.1328 210.595C42.1698 213.058 40.337 215.082 37.9816 216.283C35.6262 217.485 32.9119 217.781 30.353 217.115C27.7941 216.449 25.5684 214.867 24.0977 212.67V212.67Z" fill="#FFB8B8"/>
<path d="M140.336 234.254C138.974 233.472 137.799 232.402 136.895 231.118C135.991 229.834 135.38 228.367 135.104 226.821C134.828 225.275 134.895 223.687 135.299 222.169C135.703 220.652 136.435 219.241 137.443 218.037L124.533 96.5276L147.87 97.5938L153.236 217.114C155.147 218.942 156.32 221.408 156.535 224.043C156.749 226.678 155.989 229.301 154.399 231.414C152.809 233.526 150.499 234.982 147.907 235.506C145.316 236.029 142.622 235.584 140.336 234.254V234.254Z" fill="#FFB8B8"/>
<path d="M103.106 60.6836C116.671 60.6836 127.667 49.6872 127.667 36.1226C127.667 22.5579 116.671 11.5615 103.106 11.5615C89.5412 11.5615 78.5449 22.5579 78.5449 36.1226C78.5449 49.6872 89.5412 60.6836 103.106 60.6836Z" fill="#FFB8B8"/>
<path d="M140.18 206.619H66.1328L66.2219 206.043C66.355 205.181 79.4187 119.604 69.7837 91.6065C68.8168 88.8552 68.9019 85.8435 70.0224 83.1511C71.1429 80.4588 73.2197 78.276 75.853 77.023C89.6248 70.5377 116.061 62.5518 138.373 81.9322C141.657 84.831 144.221 88.454 145.862 92.5145C147.504 96.5751 148.179 100.962 147.833 105.328L140.18 206.619Z" fill="#6C63FF"/>
<path d="M80.3542 132.25L47.0176 125.487L62.6438 88.4575C63.5789 84.8709 65.8984 81.8017 69.0934 79.923C72.2885 78.0444 76.0982 77.5096 79.687 78.4361C83.2758 79.3625 86.3506 81.6746 88.237 84.8651C90.1234 88.0556 90.6673 91.864 89.7495 95.455L80.3542 132.25Z" fill="#6C63FF"/>
<path d="M123.05 144.808L121.046 98.8667C119.526 90.2305 124.47 82.0664 132.074 80.7319C139.679 79.4023 147.105 85.3921 148.632 94.0918L156.165 137.02L123.05 144.808Z" fill="#6C63FF"/>
<path d="M137.716 201.119C149.631 246.495 150.93 304.188 147.716 367.119L131.716 365.119L102.716 245.119L86.7161 367.119L68.7161 366.119C63.3386 300.089 58.1028 243.403 66.7161 206.119L137.716 201.119Z" fill="#2F2E41"/>
<path d="M119.289 55.104C114.707 59.9848 106.198 57.3647 105.601 50.6968C105.554 50.1791 105.557 49.6581 105.611 49.1411C105.919 46.1876 107.625 43.5061 107.217 40.3875C107.124 39.6114 106.835 38.8717 106.377 38.2386C102.725 33.3493 94.1543 40.4255 90.7083 35.9993C88.5953 33.2853 91.0792 29.0122 89.4577 25.9788C87.3176 21.9752 80.9789 23.9502 77.0038 21.7576C72.581 19.3182 72.8456 12.5324 75.757 8.40498C79.3075 3.37139 85.5327 0.685448 91.6803 0.298348C97.8279 -0.0887518 103.933 1.57309 109.673 3.80979C116.194 6.35113 122.66 9.86331 126.673 15.5973C131.553 22.5705 132.023 31.9453 129.582 40.0991C128.098 45.0591 123.031 51.1183 119.289 55.104Z" fill="#2F2E41"/>
</svg>
