<svg width="303" height="237" viewBox="0 0 303 237" fill="none" xmlns="http://www.w3.org/2000/svg">
<path d="M280.067 228.703C295.366 215.776 304.658 195.355 302.221 175.475C299.784 155.595 284.69 137.319 265.112 133.098C245.533 128.876 223.214 140.562 217.267 159.688C213.995 122.814 210.223 84.396 190.619 52.9948C172.868 24.5618 142.122 4.2168 108.801 0.577118C75.4801 -3.06256 40.3972 10.6841 19.6161 36.9841C-1.1651 63.2841 -6.25327 101.519 8.30131 131.713C19.0232 153.956 38.7766 170.51 59.4733 183.977C125.503 226.943 207.412 244.862 285.351 233.392" fill="#CBB2FE"/>
<path d="M52.5666 11.4461C80.0607 33.8404 105.284 58.8866 127.87 86.2226C150.461 113.531 170.349 142.965 187.257 174.113C196.707 191.586 205.196 209.561 212.687 227.96C214.214 231.702 208.137 233.331 206.627 229.63C193.359 197.195 176.944 166.137 157.618 136.903C138.385 107.776 116.372 80.5821 91.8889 55.705C78.0409 41.6412 63.4301 28.3496 48.1226 15.8902C44.985 13.3352 49.455 8.91228 52.5666 11.4462L52.5666 11.4461Z" fill="#F0E1FF"/>
</svg>
